<?xml version="1.0" encoding="UTF-8" standalone="no"?><!DOCTYPE svg PUBLIC "-//W3C//DTD SVG 1.1//EN" "http://www.w3.org/Graphics/SVG/1.1/DTD/svg11.dtd"><!-- Generated by graphviz version 2.40.1 (20161225.0304)
 --><!-- Title: G Pages: 1 --><svg xmlns="http://www.w3.org/2000/svg" xmlns:xlink="http://www.w3.org/1999/xlink" width="1872pt" height="1011pt" viewBox="0.00 0.00 1872.00 1010.60">
<g id="graph0" class="graph" transform="scale(1 1) rotate(0) translate(4 1006.6)">
<title>G</title>
<polygon fill="#ffffff" stroke="transparent" points="-4,4 -4,-1006.6 1868,-1006.6 1868,4 -4,4"/>
<g id="clust1" class="cluster">
<title>cluster_0</title>
<polygon fill="#d3d3d3" stroke="#d3d3d3" points="984,-81 984,-633 1220,-633 1220,-81 984,-81"/>
<text text-anchor="middle" x="1102" y="-616.4" font-family="Times,serif" font-size="14.00" fill="#000000">Romano</text>
</g>
<g id="clust2" class="cluster">
<title>cluster_1</title>
<polygon fill="#d3d3d3" stroke="#d3d3d3" points="794,-395 794,-769.4 904,-769.4 904,-395 794,-395"/>
<text text-anchor="middle" x="849" y="-752.8" font-family="Times,serif" font-size="14.00" fill="#000000">Blot</text>
</g>
<g id="clust3" class="cluster">
<title>cluster_2</title>
<polygon fill="#d3d3d3" stroke="#d3d3d3" points="1578,-169.8 1578,-769.4 1735,-769.4 1735,-169.8 1578,-169.8"/>
<text text-anchor="middle" x="1656.5" y="-752.8" font-family="Times,serif" font-size="14.00" fill="#000000">Barnèche</text>
</g>
<g id="clust4" class="cluster">
<title>cluster_3</title>
<polygon fill="#d3d3d3" stroke="#d3d3d3" points="76,-258.6 76,-633 155,-633 155,-258.6 76,-258.6"/>
<text text-anchor="middle" x="115.5" y="-616.4" font-family="Times,serif" font-size="14.00" fill="#000000">Ehrenfried</text>
</g>
<g id="clust5" class="cluster">
<title>cluster_4</title>
<polygon fill="#d3d3d3" stroke="#d3d3d3" points="536,-8 536,-496.6 716,-496.6 716,-8 536,-8"/>
<text text-anchor="middle" x="626" y="-480" font-family="Times,serif" font-size="14.00" fill="#000000">Hutner</text>
</g>
<g id="clust6" class="cluster">
<title>cluster_5</title>
<polygon fill="#d3d3d3" stroke="#d3d3d3" points="1329,-8 1329,-496.6 1472,-496.6 1472,-8 1329,-8"/>
<text text-anchor="middle" x="1400.5" y="-480" font-family="Times,serif" font-size="14.00" fill="#000000">Condamine</text>
</g>
<g id="clust7" class="cluster">
<title>cluster_6</title>
<polygon fill="#d3d3d3" stroke="#d3d3d3" points="231,-81 231,-360.2 331,-360.2 331,-81 231,-81"/>
<text text-anchor="middle" x="281" y="-343.6" font-family="Times,serif" font-size="14.00" fill="#000000">Zawada</text>
</g>
<g id="clust8" class="cluster">
<title>cluster_7</title>
<polygon fill="#d3d3d3" stroke="#d3d3d3" points="1748,-667.8 1748,-994.6 1856,-994.6 1856,-667.8 1748,-667.8"/>
<text text-anchor="middle" x="1802" y="-978" font-family="Times,serif" font-size="14.00" fill="#000000">Écoupaud</text>
</g>
<!-- Odile -->
<g id="node1" class="node">
<title>Odile</title>
<ellipse fill="#ffffff" stroke="#ffffff" cx="1024" cy="-557.4" rx="32.4808" ry="18"/>
<text text-anchor="middle" x="1024" y="-553.2" font-family="Times,serif" font-size="14.00" fill="#000000">Odile</text>
</g>
<!-- Simon -->
<g id="node2" class="node">
<title>Simon</title>
<ellipse fill="#ffffff" stroke="#ffffff" cx="1028" cy="-107" rx="36.0167" ry="18"/>
<text text-anchor="middle" x="1028" y="-102.8" font-family="Times,serif" font-size="14.00" fill="#000000">Simon</text>
</g>
<!-- Odile&#45;&gt;Simon -->
<g id="edge1" class="edge">
<title>Odile-&gt;Simon</title>
<path fill="none" stroke="#000000" d="M1043.0707,-542.4947C1055.9592,-531.3091 1072.1793,-514.835 1081,-496.6 1127.5696,-400.3261 1099.7152,-364.2258 1116.4656,-258.6 1119.628,-238.6585 1122.3199,-233.9207 1124,-213.8 1125.6273,-194.3123 1133.3024,-187.0013 1124,-169.8 1111.923,-147.4682 1088.0695,-131.805 1067.1625,-121.7065"/>
<polygon fill="#000000" stroke="#000000" points="1068.3684,-118.4099 1057.8168,-117.4542 1065.4694,-124.7814 1068.3684,-118.4099"/>
<text text-anchor="middle" x="1134.2672" y="-280.4" font-family="Times,serif" font-size="14.00" fill="#000000">Madre</text>
</g>
<!-- Antoine -->
<g id="node3" class="node">
<title>Antoine</title>
<ellipse fill="#ffffff" stroke="#ffffff" cx="1147" cy="-107" rx="42.2952" ry="18"/>
<text text-anchor="middle" x="1147" y="-102.8" font-family="Times,serif" font-size="14.00" fill="#000000">Antoine</text>
</g>
<!-- Odile&#45;&gt;Antoine -->
<g id="edge2" class="edge">
<title>Odile-&gt;Antoine</title>
<path fill="none" stroke="#000000" d="M1051.345,-547.2669C1094.859,-529.1659 1175,-486.8852 1175,-421 1175,-421 1175,-421 1175,-195.8 1175,-174.4497 1167.5468,-151.4928 1160.3312,-134.2702"/>
<polygon fill="#000000" stroke="#000000" points="1163.4111,-132.5804 1156.1682,-124.8479 1157.0081,-135.4094 1163.4111,-132.5804"/>
<text text-anchor="middle" x="1193.2672" y="-280.4" font-family="Times,serif" font-size="14.00" fill="#000000">Madre</text>
</g>
<!-- Robert -->
<g id="node4" class="node">
<title>Robert</title>
<ellipse fill="#ffffff" stroke="#ffffff" cx="1029" cy="-284.6" rx="37.1386" ry="18"/>
<text text-anchor="middle" x="1029" y="-280.4" font-family="Times,serif" font-size="14.00" fill="#000000">Robert</text>
</g>
<!-- Odile&#45;&gt;Robert -->
<g id="edge3" class="edge">
<title>Odile-&gt;Robert</title>
<path fill="none" stroke="#000000" d="M1029.3619,-539.6175C1030.8501,-533.8607 1032.2601,-527.4104 1033,-521.4 1033.9123,-513.9893 1033.0679,-512.0664 1033,-504.6 1032.3194,-429.7296 1030.3362,-340.5445 1029.444,-302.8518"/>
<text text-anchor="middle" x="1054.5589" y="-416.8" font-family="Times,serif" font-size="14.00" fill="#000000">Coniugi</text>
</g>
<!-- Rémi -->
<g id="node29" class="node">
<title>Rémi</title>
<ellipse fill="none" stroke="#000000" cx="495" cy="-421" rx="32.7497" ry="18"/>
<text text-anchor="middle" x="495" y="-416.8" font-family="Times,serif" font-size="14.00" fill="#000000">Rémi</text>
</g>
<!-- Odile&#45;&gt;Rémi -->
<g id="edge47" class="edge">
<title>Odile-&gt;Rémi</title>
<path fill="none" stroke="#ff0000" d="M995.1333,-549.0099C951.2655,-536.6892 864.9845,-514.1335 790,-504.6 775.7743,-502.7913 544.0473,-504.3785 532,-496.6 512.2355,-483.8387 502.6967,-457.2272 498.3389,-439.2338"/>
<text text-anchor="middle" x="900.9965" y="-508.8" font-family="Times,serif" font-size="14.00" fill="#000000">Amanti</text>
</g>
<!-- Paola -->
<g id="node30" class="node">
<title>Paola</title>
<ellipse fill="none" stroke="#000000" cx="1515" cy="-107" rx="32.4808" ry="18"/>
<text text-anchor="middle" x="1515" y="-102.8" font-family="Times,serif" font-size="14.00" fill="#000000">Paola</text>
</g>
<!-- Odile&#45;&gt;Paola -->
<g id="edge42" class="edge">
<title>Odile-&gt;Paola</title>
<path fill="none" stroke="#006400" d="M1056.5331,-555.3266C1155.3104,-548.7197 1446.7998,-526.8085 1476,-496.6 1527.8507,-442.9589 1519.4573,-194.8808 1516.0098,-125.2302"/>
<text text-anchor="middle" x="1540.1585" y="-280.4" font-family="Times,serif" font-size="14.00" fill="#000000">Amiche</text>
</g>
<!-- Jeannette -->
<g id="node6" class="node">
<title>Jeannette</title>
<ellipse fill="#ffffff" stroke="#ffffff" cx="849" cy="-421" rx="46.9265" ry="18"/>
<text text-anchor="middle" x="849" y="-416.8" font-family="Times,serif" font-size="14.00" fill="#000000">Jeannette</text>
</g>
<!-- Simon&#45;&gt;Jeannette -->
<g id="edge33" class="edge">
<title>Simon-&gt;Jeannette</title>
<path fill="none" stroke="#000000" d="M1017.9745,-124.5867C988.1517,-176.9015 899.8614,-331.7794 864.1979,-394.3399"/>
<polygon fill="#000000" stroke="#000000" points="861.0485,-392.7974 859.1367,-403.2183 867.1298,-396.2642 861.0485,-392.7974"/>
<text text-anchor="middle" x="973.0512" y="-236" font-family="Times,serif" font-size="14.00" fill="#000000">Nipote</text>
</g>
<!-- Robert&#45;&gt;Simon -->
<g id="edge4" class="edge">
<title>Robert-&gt;Simon</title>
<path fill="none" stroke="#000000" d="M1027.4165,-266.5757C1026.2434,-252.2777 1024.7455,-231.7777 1024.1276,-213.8 1023.4559,-194.256 1023.5255,-189.3463 1024.1276,-169.8 1024.4757,-158.4996 1025.1753,-146.0715 1025.8852,-135.2748"/>
<polygon fill="#000000" stroke="#000000" points="1029.3889,-135.3414 1026.5861,-125.1241 1022.4055,-134.8592 1029.3889,-135.3414"/>
<text text-anchor="middle" x="1039.9362" y="-191.6" font-family="Times,serif" font-size="14.00" fill="#000000">Padre</text>
</g>
<!-- Robert&#45;&gt;Antoine -->
<g id="edge5" class="edge">
<title>Robert-&gt;Antoine</title>
<path fill="none" stroke="#000000" d="M1040.5292,-267.2476C1061.3256,-235.9472 1105.2217,-169.8799 1129.6569,-133.1029"/>
<polygon fill="#000000" stroke="#000000" points="1132.8052,-134.6889 1135.424,-124.4228 1126.9748,-130.8151 1132.8052,-134.6889"/>
<text text-anchor="middle" x="1118.9362" y="-191.6" font-family="Times,serif" font-size="14.00" fill="#000000">Padre</text>
</g>
<!-- Robert&#45;&gt;Jeannette -->
<g id="edge31" class="edge">
<title>Robert-&gt;Jeannette</title>
<path fill="none" stroke="#000000" d="M1008.7778,-299.9239C977.0581,-323.9604 915.4419,-370.6518 878.6873,-398.5036"/>
<polygon fill="#000000" stroke="#000000" points="876.2115,-395.9883 870.3552,-404.8175 880.4393,-401.5674 876.2115,-395.9883"/>
<text text-anchor="middle" x="937.5982" y="-372.4" font-family="Times,serif" font-size="14.00" fill="#000000">Genero</text>
</g>
<!-- Luc -->
<g id="node15" class="node">
<title>Luc</title>
<ellipse fill="#ffffff" stroke="#ffffff" cx="1364" cy="-195.8" rx="27" ry="18"/>
<text text-anchor="middle" x="1364" y="-191.6" font-family="Times,serif" font-size="14.00" fill="#000000">Luc</text>
</g>
<!-- Robert&#45;&gt;Luc -->
<g id="edge37" class="edge">
<title>Robert-&gt;Luc</title>
<path fill="none" stroke="#00ff00" d="M1053.0818,-270.7379C1061.4067,-266.3776 1070.9263,-261.8561 1080,-258.6 1165.9536,-227.7551 1272.1939,-209.1499 1327.1649,-200.8843"/>
<polygon fill="#00ff00" stroke="#00ff00" points="1327.7528,-204.3356 1337.1354,-199.4145 1326.7318,-197.4104 1327.7528,-204.3356"/>
<text text-anchor="middle" x="1181.4965" y="-236" font-family="Times,serif" font-size="14.00" fill="#000000">Amici</text>
</g>
<!-- Ernest -->
<g id="node5" class="node">
<title>Ernest</title>
<ellipse fill="#ffffff" stroke="#ffffff" cx="855" cy="-693.8" rx="35.9115" ry="18"/>
<text text-anchor="middle" x="855" y="-689.6" font-family="Times,serif" font-size="14.00" fill="#000000">Ernest</text>
</g>
<!-- Ernest&#45;&gt;Odile -->
<g id="edge39" class="edge">
<title>Ernest-&gt;Odile</title>
<path fill="none" stroke="#000000" d="M888.5144,-687.4707C909.5296,-682.2205 936.2778,-673.0729 956,-657.8 981.1961,-638.2881 1000.3708,-606.7469 1011.8353,-584.2247"/>
<polygon fill="#000000" stroke="#000000" points="1015.0076,-585.705 1016.2718,-575.1858 1008.7237,-582.6207 1015.0076,-585.705"/>
<text text-anchor="middle" x="987.9362" y="-645.2" font-family="Times,serif" font-size="14.00" fill="#000000">Padre</text>
</g>
<!-- Ernest&#45;&gt;Simon -->
<g id="edge20" class="edge">
<title>Ernest-&gt;Simon</title>
<path fill="none" stroke="#000000" d="M890.324,-691.1678C934.9924,-686.2572 1012.4047,-672.3115 1065,-633 1187.9883,-541.0743 1176.8163,-475.2489 1286.8934,-368.2 1291.0003,-364.2061 1294.505,-365.3569 1297,-360.2 1316.6659,-319.5518 1318.7952,-298.1474 1297,-258.6 1250.5664,-174.3462 1199.3341,-187.4172 1114,-143 1098.9247,-135.1532 1081.7482,-127.687 1066.7303,-121.6092"/>
<polygon fill="#000000" stroke="#000000" points="1067.8024,-118.269 1057.2169,-117.8258 1065.2156,-124.7735 1067.8024,-118.269"/>
<text text-anchor="middle" x="1305.0533" y="-372.4" font-family="Times,serif" font-size="14.00" fill="#000000">Nonno</text>
</g>
<!-- Ernest&#45;&gt;Jeannette -->
<g id="edge6" class="edge">
<title>Ernest-&gt;Jeannette</title>
<path fill="none" stroke="#000000" d="M854.597,-675.4772C853.504,-625.7805 850.4922,-488.8462 849.4012,-439.243"/>
<text text-anchor="middle" x="875.5589" y="-553.2" font-family="Times,serif" font-size="14.00" fill="#000000">Coniugi</text>
</g>
<!-- Jean -->
<g id="node11" class="node">
<title>Jean</title>
<ellipse fill="#ffffff" stroke="#ffffff" cx="119" cy="-284.6" rx="28.3893" ry="18"/>
<text text-anchor="middle" x="119" y="-280.4" font-family="Times,serif" font-size="14.00" fill="#000000">Jean</text>
</g>
<!-- Ernest&#45;&gt;Jean -->
<g id="edge21" class="edge">
<title>Ernest-&gt;Jean</title>
<path fill="none" stroke="#006400" d="M818.954,-692.9763C688.2911,-689.6539 244.7666,-675.3217 199,-633 120.1941,-560.126 223.5872,-479.9665 158,-395 151.4371,-386.4979 142.5508,-393.5115 136,-385 117.6699,-361.1834 116.1878,-324.7239 117.2607,-302.9155"/>
<text text-anchor="middle" x="193.4965" y="-508.8" font-family="Times,serif" font-size="14.00" fill="#000000">Amici</text>
</g>
<!-- Marguerite -->
<g id="node27" class="node">
<title>Marguerite</title>
<ellipse fill="none" stroke="#000000" cx="732" cy="-557.4" rx="53.8693" ry="18"/>
<text text-anchor="middle" x="732" y="-553.2" font-family="Times,serif" font-size="14.00" fill="#000000">Marguerite</text>
</g>
<!-- Ernest&#45;&gt;Marguerite -->
<g id="edge38" class="edge">
<title>Ernest-&gt;Marguerite</title>
<path fill="none" stroke="#000000" d="M832.1822,-679.8287C823.0687,-673.6782 812.8049,-665.9911 804.5652,-657.8 778.7886,-632.1754 755.4208,-596.6284 742.515,-575.4269"/>
<text text-anchor="middle" x="824.2174" y="-645.2" font-family="Times,serif" font-size="14.00" fill="#000000">Fratelli</text>
</g>
<!-- Jeannette&#45;&gt;Odile -->
<g id="edge7" class="edge">
<title>Jeannette-&gt;Odile</title>
<path fill="none" stroke="#000000" d="M857.0117,-439.059C865.9636,-456.9131 882.2468,-483.4155 905,-496.6 931.3297,-511.8569 945.7315,-491.0925 973,-504.6 985.8861,-510.9832 997.3207,-521.9971 1006.0799,-532.3195"/>
<polygon fill="#000000" stroke="#000000" points="1003.5255,-534.729 1012.5076,-540.3479 1008.9899,-530.3541 1003.5255,-534.729"/>
<text text-anchor="middle" x="1013.2672" y="-508.8" font-family="Times,serif" font-size="14.00" fill="#000000">Madre</text>
</g>
<!-- Jeannette&#45;&gt;Simon -->
<g id="edge32" class="edge">
<title>Jeannette-&gt;Simon</title>
<path fill="none" stroke="#000000" d="M823.2619,-405.6186C815.7447,-399.9903 808.1695,-393.0091 803,-385 769.1577,-332.5684 777.137,-310.5576 769.6788,-248.6 763.5749,-197.8929 773.8267,-173.2197 815,-143 840.8471,-124.0292 927.1832,-114.3404 981.678,-109.9974"/>
<polygon fill="#000000" stroke="#000000" points="982.0893,-113.4762 991.793,-109.2232 981.555,-106.4966 982.0893,-113.4762"/>
<text text-anchor="middle" x="787.6606" y="-236" font-family="Times,serif" font-size="14.00" fill="#000000">Nonna</text>
</g>
<!-- Hélène -->
<g id="node7" class="node">
<title>Hélène</title>
<ellipse fill="#ffffff" stroke="#ffffff" cx="1660" cy="-693.8" rx="42.605" ry="18"/>
<text text-anchor="middle" x="1660" y="-689.6" font-family="Times,serif" font-size="14.00" fill="#000000">Hélène</text>
</g>
<!-- Damien -->
<g id="node8" class="node">
<title>Damien</title>
<ellipse fill="#ffffff" stroke="#ffffff" cx="1656" cy="-195.8" rx="41.7114" ry="18"/>
<text text-anchor="middle" x="1656" y="-191.6" font-family="Times,serif" font-size="14.00" fill="#000000">Damien</text>
</g>
<!-- Hélène&#45;&gt;Damien -->
<g id="edge8" class="edge">
<title>Hélène-&gt;Damien</title>
<path fill="none" stroke="#000000" d="M1669.1408,-675.9502C1674.7545,-664.0958 1681.5163,-648.0086 1685,-633 1692.6137,-600.1986 1690,-591.0734 1690,-557.4 1690,-557.4 1690,-557.4 1690,-284.6 1690,-262.5927 1680.7798,-239.4251 1671.9423,-222.2736"/>
<polygon fill="#000000" stroke="#000000" points="1674.9783,-220.53 1667.1329,-213.4095 1668.8255,-223.8683 1674.9783,-220.53"/>
<text text-anchor="middle" x="1708.2672" y="-416.8" font-family="Times,serif" font-size="14.00" fill="#000000">Madre</text>
</g>
<!-- Raoul -->
<g id="node9" class="node">
<title>Raoul</title>
<ellipse fill="#ffffff" stroke="#ffffff" cx="1620" cy="-421" rx="34.2084" ry="18"/>
<text text-anchor="middle" x="1620" y="-416.8" font-family="Times,serif" font-size="14.00" fill="#000000">Raoul</text>
</g>
<!-- Hélène&#45;&gt;Raoul -->
<g id="edge10" class="edge">
<title>Hélène-&gt;Raoul</title>
<path fill="none" stroke="#000000" d="M1652.9268,-676.0019C1648.4669,-664.0341 1642.983,-647.7997 1639.8822,-633 1625.0622,-562.2652 1621.2822,-475.9295 1620.3233,-439.073"/>
<text text-anchor="middle" x="1661.5589" y="-553.2" font-family="Times,serif" font-size="14.00" fill="#000000">Coniugi</text>
</g>
<!-- Raoul&#45;&gt;Robert -->
<g id="edge50" class="edge">
<title>Raoul-&gt;Robert</title>
<path fill="none" stroke="#006400" d="M1587.6919,-415.1382C1558.5107,-409.8505 1514.3853,-401.8717 1476,-395 1408.9067,-382.989 1392.7906,-375.2859 1325,-368.2 1297.9109,-365.3685 1103.8371,-373.3769 1080,-360.2 1057.4144,-347.715 1042.9142,-320.4798 1035.3596,-302.3394"/>
<text text-anchor="middle" x="1440.4965" y="-372.4" font-family="Times,serif" font-size="14.00" fill="#000000">Amici</text>
</g>
<!-- Raoul&#45;&gt;Damien -->
<g id="edge9" class="edge">
<title>Raoul-&gt;Damien</title>
<path fill="none" stroke="#000000" d="M1622.8852,-402.9516C1629.1388,-363.832 1643.9823,-270.9776 1651.4882,-224.024"/>
<polygon fill="#000000" stroke="#000000" points="1654.9786,-224.3615 1653.1011,-213.9343 1648.0663,-223.2564 1654.9786,-224.3615"/>
<text text-anchor="middle" x="1660.9362" y="-280.4" font-family="Times,serif" font-size="14.00" fill="#000000">Padre</text>
</g>
<!-- Dina -->
<g id="node10" class="node">
<title>Dina</title>
<ellipse fill="#ffffff" stroke="#ffffff" cx="114" cy="-557.4" rx="29.6147" ry="18"/>
<text text-anchor="middle" x="114" y="-553.2" font-family="Times,serif" font-size="14.00" fill="#000000">Dina</text>
</g>
<!-- Dina&#45;&gt;Jean -->
<g id="edge11" class="edge">
<title>Dina-&gt;Jean</title>
<path fill="none" stroke="#000000" d="M112.037,-539.3777C108.6579,-505.7095 102.5168,-430.9856 107,-368.2 108.6187,-345.5306 112.6764,-319.6653 115.6262,-302.7846"/>
<text text-anchor="middle" x="131.5589" y="-416.8" font-family="Times,serif" font-size="14.00" fill="#000000">Coniugi</text>
</g>
<!-- Lionel -->
<g id="node12" class="node">
<title>Lionel</title>
<ellipse fill="#ffffff" stroke="#ffffff" cx="670" cy="-421" rx="36.4955" ry="18"/>
<text text-anchor="middle" x="670" y="-416.8" font-family="Times,serif" font-size="14.00" fill="#000000">Lionel</text>
</g>
<!-- Lionel&#45;&gt;Robert -->
<g id="edge49" class="edge">
<title>Lionel-&gt;Robert</title>
<path fill="none" stroke="#006400" d="M674.2219,-403.0918C677.8561,-391.5135 684.2624,-377.0115 695.007,-368.2 700.936,-363.3377 912.0537,-312.5328 995.5255,-292.5805"/>
<text text-anchor="middle" x="712.4965" y="-372.4" font-family="Times,serif" font-size="14.00" fill="#000000">Amici</text>
</g>
<!-- Jacob -->
<g id="node13" class="node">
<title>Jacob</title>
<ellipse fill="#ffffff" stroke="#ffffff" cx="592" cy="-34" rx="33.045" ry="18"/>
<text text-anchor="middle" x="592" y="-29.8" font-family="Times,serif" font-size="14.00" fill="#000000">Jacob</text>
</g>
<!-- Lionel&#45;&gt;Jacob -->
<g id="edge12" class="edge">
<title>Lionel-&gt;Jacob</title>
<path fill="none" stroke="#000000" d="M672.1635,-402.8558C677.6285,-350.0231 687.903,-192.9522 633,-81 628.7284,-72.2898 622.4249,-63.9196 616.0349,-56.7182"/>
<polygon fill="#000000" stroke="#000000" points="618.558,-54.2922 609.1593,-49.4021 613.4571,-59.086 618.558,-54.2922"/>
<text text-anchor="middle" x="685.9362" y="-191.6" font-family="Times,serif" font-size="14.00" fill="#000000">Padre</text>
</g>
<!-- Pascaline -->
<g id="node14" class="node">
<title>Pascaline</title>
<ellipse fill="#ffffff" stroke="#ffffff" cx="592" cy="-195.8" rx="47.5061" ry="18"/>
<text text-anchor="middle" x="592" y="-191.6" font-family="Times,serif" font-size="14.00" fill="#000000">Pascaline</text>
</g>
<!-- Lionel&#45;&gt;Pascaline -->
<g id="edge14" class="edge">
<title>Lionel-&gt;Pascaline</title>
<path fill="none" stroke="#000000" d="M653.5557,-404.3655C643.1615,-392.8889 630.329,-376.7648 622.8822,-360.2 600.4959,-310.4037 594.3345,-245.0837 592.6408,-213.8959"/>
<text text-anchor="middle" x="644.5589" y="-280.4" font-family="Times,serif" font-size="14.00" fill="#000000">Coniugi</text>
</g>
<!-- Lionel&#45;&gt;Luc -->
<g id="edge36" class="edge">
<title>Lionel-&gt;Luc</title>
<path fill="none" stroke="#006400" d="M691.06,-406.3367C698.5891,-401.8598 707.3561,-397.4706 716,-395 766.4704,-380.5744 899.625,-388.4953 952,-385 1073.1209,-376.917 1116.2241,-416.0568 1224,-360.2 1257.6168,-342.7775 1325.3488,-250.4912 1352.4275,-212.3331"/>
<text text-anchor="middle" x="1334.4965" y="-280.4" font-family="Times,serif" font-size="14.00" fill="#000000">Amici</text>
</g>
<!-- Pascaline&#45;&gt;Jacob -->
<g id="edge13" class="edge">
<title>Pascaline-&gt;Jacob</title>
<path fill="none" stroke="#000000" d="M592,-177.554C592,-149.6351 592,-96.0651 592,-62.8464"/>
<polygon fill="#000000" stroke="#000000" points="595.5001,-62.4275 592,-52.4276 588.5001,-62.4276 595.5001,-62.4275"/>
<text text-anchor="middle" x="610.2672" y="-102.8" font-family="Times,serif" font-size="14.00" fill="#000000">Madre</text>
</g>
<!-- Juliette -->
<g id="node16" class="node">
<title>Juliette</title>
<ellipse fill="#ffffff" stroke="#ffffff" cx="1401" cy="-34" rx="38.8575" ry="18"/>
<text text-anchor="middle" x="1401" y="-29.8" font-family="Times,serif" font-size="14.00" fill="#000000">Juliette</text>
</g>
<!-- Luc&#45;&gt;Juliette -->
<g id="edge15" class="edge">
<title>Luc-&gt;Juliette</title>
<path fill="none" stroke="#000000" d="M1368.0534,-177.8992C1373.1732,-155.3101 1382.2648,-115.2667 1390.1276,-81 1391.5195,-74.9338 1393.0195,-68.429 1394.4475,-62.2515"/>
<polygon fill="#000000" stroke="#000000" points="1397.9059,-62.8308 1396.751,-52.2991 1391.0862,-61.2523 1397.9059,-62.8308"/>
<text text-anchor="middle" x="1405.9362" y="-102.8" font-family="Times,serif" font-size="14.00" fill="#000000">Padre</text>
</g>
<!-- Luc&#45;&gt;Paola -->
<g id="edge41" class="edge">
<title>Luc-&gt;Paola</title>
<path fill="none" stroke="#ff0000" d="M1383.4884,-183.1822C1390.2567,-178.8694 1397.9236,-174.0606 1405,-169.8 1434.5775,-151.9918 1469.2489,-132.4065 1491.6417,-119.9218"/>
<text text-anchor="middle" x="1470.9965" y="-147.2" font-family="Times,serif" font-size="14.00" fill="#000000">Amanti</text>
</g>
<!-- Anne_Laure -->
<g id="node17" class="node">
<title>Anne_Laure</title>
<ellipse fill="#ffffff" stroke="#ffffff" cx="1400" cy="-421" rx="59.0929" ry="18"/>
<text text-anchor="middle" x="1400" y="-416.8" font-family="Times,serif" font-size="14.00" fill="#000000">Anne_Laure</text>
</g>
<!-- Anne_Laure&#45;&gt;Luc -->
<g id="edge17" class="edge">
<title>Anne_Laure-&gt;Luc</title>
<path fill="none" stroke="#000000" d="M1391.6258,-403.0609C1386.467,-391.1698 1380.2207,-375.0753 1376.8822,-360.2 1365.1586,-307.9629 1363.6887,-244.3196 1363.748,-213.8068"/>
<text text-anchor="middle" x="1398.5589" y="-280.4" font-family="Times,serif" font-size="14.00" fill="#000000">Coniugi</text>
</g>
<!-- Anne_Laure&#45;&gt;Juliette -->
<g id="edge16" class="edge">
<title>Anne_Laure-&gt;Juliette</title>
<path fill="none" stroke="#000000" d="M1408.015,-403.0318C1412.9432,-391.1287 1418.8912,-375.0319 1422,-360.2 1428.908,-327.2428 1427,-318.2734 1427,-284.6 1427,-284.6 1427,-284.6 1427,-107 1427,-91.086 1421.4489,-74.2928 1415.4766,-60.8305"/>
<polygon fill="#000000" stroke="#000000" points="1418.5801,-59.2067 1411.1267,-51.6769 1412.2576,-62.2112 1418.5801,-59.2067"/>
<text text-anchor="middle" x="1445.2672" y="-191.6" font-family="Times,serif" font-size="14.00" fill="#000000">Madre</text>
</g>
<!-- Paulette -->
<g id="node18" class="node">
<title>Paulette</title>
<ellipse fill="#ffffff" stroke="#ffffff" cx="281" cy="-284.6" rx="42.2893" ry="18"/>
<text text-anchor="middle" x="281" y="-280.4" font-family="Times,serif" font-size="14.00" fill="#000000">Paulette</text>
</g>
<!-- Vincent -->
<g id="node19" class="node">
<title>Vincent</title>
<ellipse fill="#ffffff" stroke="#ffffff" cx="281" cy="-107" rx="41.7114" ry="18"/>
<text text-anchor="middle" x="281" y="-102.8" font-family="Times,serif" font-size="14.00" fill="#000000">Vincent</text>
</g>
<!-- Paulette&#45;&gt;Vincent -->
<g id="edge18" class="edge">
<title>Paulette-&gt;Vincent</title>
<path fill="none" stroke="#000000" d="M281,-266.5934C281,-235.612 281,-172.006 281,-135.1346"/>
<polygon fill="#000000" stroke="#000000" points="284.5001,-135.0542 281,-125.0543 277.5001,-135.0543 284.5001,-135.0542"/>
<text text-anchor="middle" x="299.2672" y="-191.6" font-family="Times,serif" font-size="14.00" fill="#000000">Madre</text>
</g>
<!-- Jacques -->
<g id="node20" class="node">
<title>Jacques</title>
<ellipse fill="#ffffff" stroke="#ffffff" cx="1799" cy="-919" rx="41.1297" ry="18"/>
<text text-anchor="middle" x="1799" y="-914.8" font-family="Times,serif" font-size="14.00" fill="#000000">Jacques</text>
</g>
<!-- Thérèse -->
<g id="node21" class="node">
<title>Thérèse</title>
<ellipse fill="#ffffff" stroke="#ffffff" cx="1802" cy="-693.8" rx="46.0337" ry="18"/>
<text text-anchor="middle" x="1802" y="-689.6" font-family="Times,serif" font-size="14.00" fill="#000000">Thérèse</text>
</g>
<!-- Jacques&#45;&gt;Thérèse -->
<g id="edge19" class="edge">
<title>Jacques-&gt;Thérèse</title>
<path fill="none" stroke="#000000" d="M1799.2404,-900.9516C1799.8022,-858.7848 1801.1956,-754.1858 1801.7584,-711.9343"/>
<text text-anchor="middle" x="1822.5589" y="-826" font-family="Times,serif" font-size="14.00" fill="#000000">Coniugi</text>
</g>
<!-- Chantal -->
<g id="node23" class="node">
<title>Chantal</title>
<ellipse fill="none" stroke="#000000" cx="1699" cy="-830.2" rx="41.149" ry="18"/>
<text text-anchor="middle" x="1699" y="-826" font-family="Times,serif" font-size="14.00" fill="#000000">Chantal</text>
</g>
<!-- Jacques&#45;&gt;Chantal -->
<g id="edge23" class="edge">
<title>Jacques-&gt;Chantal</title>
<path fill="none" stroke="#ff0000" d="M1778.0032,-903.3437C1770.0199,-897.1905 1760.9415,-889.9466 1753.007,-883 1739.7868,-871.4258 1725.6092,-857.5018 1715.0988,-846.8592"/>
<text text-anchor="middle" x="1773.9965" y="-870.4" font-family="Times,serif" font-size="14.00" fill="#000000">Amanti</text>
</g>
<!-- Igor -->
<g id="node22" class="node">
<title>Igor</title>
<ellipse fill="none" stroke="#000000" cx="1148" cy="-919" rx="27.2467" ry="18"/>
<text text-anchor="middle" x="1148" y="-914.8" font-family="Times,serif" font-size="14.00" fill="#000000">Igor</text>
</g>
<!-- Igor&#45;&gt;Hélène -->
<g id="edge27" class="edge">
<title>Igor-&gt;Hélène</title>
<path fill="none" stroke="#ff0000" d="M1175.0295,-917.1601C1247.4682,-911.0677 1449.5619,-886.3352 1584,-794.2 1615.3772,-772.6961 1639.2111,-734.0418 1651.2604,-711.4851"/>
<text text-anchor="middle" x="1575.9965" y="-826" font-family="Times,serif" font-size="14.00" fill="#000000">Amanti</text>
</g>
<!-- Igor&#45;&gt;Jacob -->
<g id="edge28" class="edge">
<title>Igor-&gt;Jacob</title>
<path fill="none" stroke="#0000ff" d="M1120.7546,-918.3612C946.9082,-914.1113 0,-888.2962 0,-830.2 0,-830.2 0,-830.2 0,-107 0,-51.6795 412.4603,-37.8502 548.82,-34.7898"/>
<polygon fill="#0000ff" stroke="#0000ff" points="548.9809,-38.2872 558.903,-34.572 548.8297,-31.2889 548.9809,-38.2872"/>
<text text-anchor="middle" x="33.0463" y="-416.8" font-family="Times,serif" font-size="14.00" fill="#000000">Psicanalista</text>
</g>
<!-- Igor&#45;&gt;Chantal -->
<g id="edge22" class="edge">
<title>Igor-&gt;Chantal</title>
<path fill="none" stroke="#0000ff" d="M1175.3306,-918.5383C1262.0137,-916.815 1529.8981,-909.4311 1612,-883 1633.0016,-876.2389 1654.2153,-863.5105 1670.437,-852.2452"/>
<polygon fill="#0000ff" stroke="#0000ff" points="1672.809,-854.8516 1678.9024,-846.1844 1668.734,-849.1599 1672.809,-854.8516"/>
<text text-anchor="middle" x="1680.0463" y="-870.4" font-family="Times,serif" font-size="14.00" fill="#000000">Psicanalista</text>
</g>
<!-- Yorgos -->
<g id="node33" class="node">
<title>Yorgos</title>
<ellipse fill="none" stroke="#000000" cx="621" cy="-557.4" rx="39.4273" ry="18"/>
<text text-anchor="middle" x="621" y="-553.2" font-family="Times,serif" font-size="14.00" fill="#000000">Yorgos</text>
</g>
<!-- Igor&#45;&gt;Yorgos -->
<g id="edge54" class="edge">
<title>Igor-&gt;Yorgos</title>
<path fill="none" stroke="#006400" d="M1122.1697,-912.5214C1060.3886,-896.1552 900.9794,-848.7111 790,-769.4 713.0267,-714.3913 652.7421,-615.0717 630.3914,-574.9344"/>
<text text-anchor="middle" x="844.4965" y="-781.6" font-family="Times,serif" font-size="14.00" fill="#000000">Amici</text>
</g>
<!-- Chantal&#45;&gt;Hélène -->
<g id="edge26" class="edge">
<title>Chantal-&gt;Hélène</title>
<path fill="none" stroke="#006400" d="M1693.8211,-812.0871C1686.3618,-785.9988 1672.6715,-738.1178 1665.2003,-711.9878"/>
<text text-anchor="middle" x="1710.1585" y="-781.6" font-family="Times,serif" font-size="14.00" fill="#000000">Amiche</text>
</g>
<!-- Anita -->
<g id="node24" class="node">
<title>Anita</title>
<ellipse fill="none" stroke="#000000" cx="240" cy="-557.4" rx="32.4808" ry="18"/>
<text text-anchor="middle" x="240" y="-553.2" font-family="Times,serif" font-size="14.00" fill="#000000">Anita</text>
</g>
<!-- Darius -->
<g id="node25" class="node">
<title>Darius</title>
<ellipse fill="none" stroke="#000000" cx="240" cy="-421" rx="36.5555" ry="18"/>
<text text-anchor="middle" x="240" y="-416.8" font-family="Times,serif" font-size="14.00" fill="#000000">Darius</text>
</g>
<!-- Anita&#45;&gt;Darius -->
<g id="edge24" class="edge">
<title>Anita-&gt;Darius</title>
<path fill="none" stroke="#000000" d="M240,-539.2871C240,-516.256 240,-476.2406 240,-449.2002"/>
<polygon fill="#000000" stroke="#000000" points="243.5001,-449.1877 240,-439.1878 236.5001,-449.1878 243.5001,-449.1877"/>
<text text-anchor="middle" x="271.1045" y="-508.8" font-family="Times,serif" font-size="14.00" fill="#000000">Ex-coniugi</text>
</g>
<!-- Darius&#45;&gt;Jean -->
<g id="edge29" class="edge">
<title>Darius-&gt;Jean</title>
<path fill="none" stroke="#000000" d="M215.8139,-407.4168C207.4813,-403.0769 197.9836,-398.4971 189,-395 173.5281,-388.9772 165.0687,-396.4092 153.007,-385 130.0111,-363.2482 122.5646,-325.4032 120.1538,-302.9094"/>
<text text-anchor="middle" x="170.4965" y="-372.4" font-family="Times,serif" font-size="14.00" fill="#000000">Amici</text>
</g>
<!-- Loula -->
<g id="node28" class="node">
<title>Loula</title>
<ellipse fill="none" stroke="#000000" cx="383" cy="-284.6" rx="33.6266" ry="18"/>
<text text-anchor="middle" x="383" y="-280.4" font-family="Times,serif" font-size="14.00" fill="#000000">Loula</text>
</g>
<!-- Darius&#45;&gt;Loula -->
<g id="edge34" class="edge">
<title>Darius-&gt;Loula</title>
<path fill="none" stroke="#ff0000" d="M262.8777,-406.709C270.1005,-402.5713 278.2274,-398.2885 286,-395 300.5062,-388.8626 307.4439,-394.5102 320,-385 348.3786,-363.5056 367.1726,-325.2115 376.3762,-302.6397"/>
<text text-anchor="middle" x="356.9965" y="-372.4" font-family="Times,serif" font-size="14.00" fill="#000000">Amanti</text>
</g>
<!-- Albert -->
<g id="node26" class="node">
<title>Albert</title>
<ellipse fill="none" stroke="#000000" cx="1188" cy="-830.2" rx="35.9115" ry="18"/>
<text text-anchor="middle" x="1188" y="-826" font-family="Times,serif" font-size="14.00" fill="#000000">Albert</text>
</g>
<!-- Albert&#45;&gt;Ernest -->
<g id="edge25" class="edge">
<title>Albert-&gt;Ernest</title>
<path fill="none" stroke="#0000ff" d="M1160.1814,-818.8052C1100.4374,-794.3335 959.8283,-736.7387 892.3764,-709.1097"/>
<polygon fill="#0000ff" stroke="#0000ff" points="893.5541,-705.8099 882.9736,-705.2583 890.9008,-712.2876 893.5541,-705.8099"/>
<text text-anchor="middle" x="1118.2188" y="-781.6" font-family="Times,serif" font-size="14.00" fill="#000000">Autista</text>
</g>
<!-- Albert&#45;&gt;Raoul -->
<g id="edge45" class="edge">
<title>Albert-&gt;Raoul</title>
<path fill="none" stroke="#000000" d="M1209.7971,-815.9217C1270.5741,-775.3546 1444.9343,-653.7577 1559,-521.4 1581.6349,-495.1353 1601.1076,-459.4791 1611.6363,-438.4867"/>
<text text-anchor="middle" x="1456.2174" y="-645.2" font-family="Times,serif" font-size="14.00" fill="#000000">Fratelli</text>
</g>
<!-- Marguerite&#45;&gt;Odile -->
<g id="edge40" class="edge">
<title>Marguerite-&gt;Odile</title>
<path fill="none" stroke="#000000" d="M739.8405,-575.3337C748.9397,-593.6363 765.85,-621.0056 790,-633 854.6163,-665.0925 886.1229,-662.4699 952.3289,-633.8 976.1369,-623.4901 995.6668,-600.9462 1008.2934,-583.0047"/>
<polygon fill="#000000" stroke="#000000" points="1011.2434,-584.8901 1013.9259,-574.6405 1005.4371,-580.9801 1011.2434,-584.8901"/>
<text text-anchor="middle" x="943" y="-645.2" font-family="Times,serif" font-size="14.00" fill="#000000">Zia</text>
</g>
<!-- Marguerite&#45;&gt;Jeannette -->
<g id="edge30" class="edge">
<title>Marguerite-&gt;Jeannette</title>
<path fill="none" stroke="#000000" d="M702.5501,-542.2042C685.889,-531.6825 670.537,-517.3343 682.3436,-504.6 698.3526,-487.3331 767.1551,-507.5509 788,-496.6 812.1863,-483.8936 830.1894,-456.9946 840.1494,-438.9538"/>
<text text-anchor="middle" x="705.3282" y="-508.8" font-family="Times,serif" font-size="14.00" fill="#000000">Cognate</text>
</g>
<!-- Rémi&#45;&gt;Loula -->
<g id="edge35" class="edge">
<title>Rémi-&gt;Loula</title>
<path fill="none" stroke="#006400" d="M478.1458,-405.4744C465.6479,-393.6025 448.5094,-376.547 435,-360.2 419.2706,-341.1668 403.5257,-317.4673 393.5504,-301.7294"/>
<text text-anchor="middle" x="474.4965" y="-372.4" font-family="Times,serif" font-size="14.00" fill="#000000">Amici</text>
</g>
<!-- Philip -->
<g id="node31" class="node">
<title>Philip</title>
<ellipse fill="none" stroke="#000000" cx="329" cy="-421" rx="34.2259" ry="18"/>
<text text-anchor="middle" x="329" y="-416.8" font-family="Times,serif" font-size="14.00" fill="#000000">Philip</text>
</g>
<!-- Philip&#45;&gt;Jean -->
<g id="edge43" class="edge">
<title>Philip-&gt;Jean</title>
<path fill="none" stroke="#0000ff" d="M308.382,-406.3403C301.5392,-402.0855 293.6971,-397.8286 286,-395 259.8984,-385.4079 249.1385,-397.3753 224.2356,-385 188.3871,-367.1853 156.5815,-332.9325 137.5589,-309.4324"/>
<polygon fill="#0000ff" stroke="#0000ff" points="140.0898,-306.9897 131.1452,-301.3113 134.5963,-311.3283 140.0898,-306.9897"/>
<text text-anchor="middle" x="245.3822" y="-372.4" font-family="Times,serif" font-size="14.00" fill="#000000">Medico</text>
</g>
<!-- Philip&#45;&gt;Paulette -->
<g id="edge55" class="edge">
<title>Philip-&gt;Paulette</title>
<path fill="none" stroke="#0000ff" d="M305.5514,-407.6568C293.4215,-400.209 280.4804,-391.209 277.2356,-385 265.5556,-362.6502 268.2686,-333.5231 272.8431,-312.4018"/>
<polygon fill="#0000ff" stroke="#0000ff" points="276.3002,-312.9969 275.2606,-302.4532 269.4982,-311.344 276.3002,-312.9969"/>
<text text-anchor="middle" x="298.3822" y="-372.4" font-family="Times,serif" font-size="14.00" fill="#000000">Medico</text>
</g>
<!-- Virginie -->
<g id="node32" class="node">
<title>Virginie</title>
<ellipse fill="none" stroke="#000000" cx="434" cy="-557.4" rx="43.4357" ry="18"/>
<text text-anchor="middle" x="434" y="-553.2" font-family="Times,serif" font-size="14.00" fill="#000000">Virginie</text>
</g>
<!-- Virginie&#45;&gt;Robert -->
<g id="edge51" class="edge">
<title>Virginie-&gt;Robert</title>
<path fill="none" stroke="#ff0000" d="M472.1401,-548.9116C534.7533,-534.9913 654.3783,-508.4627 674,-504.6 694.3606,-500.5919 704.6339,-510.5464 720,-496.6 754.6842,-465.1203 716.6766,-429.8192 748.007,-395 813.3913,-322.3347 932.6415,-296.9519 992.5715,-288.5255"/>
<text text-anchor="middle" x="768.9965" y="-416.8" font-family="Times,serif" font-size="14.00" fill="#000000">Amanti</text>
</g>
<!-- Virginie&#45;&gt;Vincent -->
<g id="edge53" class="edge">
<title>Virginie-&gt;Vincent</title>
<path fill="none" stroke="#ff0000" d="M436.3479,-539.378C440.403,-505.7103 447.8405,-430.9872 443,-368.2 439.211,-319.0522 447.8182,-302.8021 426,-258.6 398.879,-203.655 344.7792,-155.4522 310.875,-128.8609"/>
<polygon fill="#ff0000" stroke="#ff0000" points="312.7763,-125.9073 302.7191,-122.575 308.5031,-131.4517 312.7763,-125.9073"/>
<text text-anchor="middle" x="477.3731" y="-280.4" font-family="Times,serif" font-size="14.00" fill="#000000">Ha una cotta</text>
</g>
<!-- Virginie&#45;&gt;Philip -->
<g id="edge44" class="edge">
<title>Virginie-&gt;Philip</title>
<path fill="none" stroke="#0000ff" d="M399.82,-546.3309C386.8614,-540.6562 372.9177,-532.5395 363.2566,-521.4 345.5239,-500.9537 336.8615,-470.8977 332.6992,-449.0021"/>
<polygon fill="#0000ff" stroke="#0000ff" points="336.1232,-448.259 330.9974,-438.9867 329.2221,-449.4317 336.1232,-448.259"/>
<text text-anchor="middle" x="391.3717" y="-508.8" font-family="Times,serif" font-size="14.00" fill="#000000">Segretaria</text>
</g>
<!-- Yorgos&#45;&gt;Raoul -->
<g id="edge46" class="edge">
<title>Yorgos-&gt;Raoul</title>
<path fill="none" stroke="#006400" d="M651.1033,-545.758C657.0113,-543.5733 663.1807,-541.3615 669,-539.4 695.3824,-530.5072 704.2,-534.0518 729,-521.4 739.9612,-515.8081 739.3719,-508.6052 751.007,-504.6 789.0935,-491.4895 1436.945,-506.4577 1476,-496.6 1523.6365,-484.5763 1573.0415,-453.972 1599.8041,-435.5998"/>
<text text-anchor="middle" x="768.4965" y="-508.8" font-family="Times,serif" font-size="14.00" fill="#000000">Amici</text>
</g>
<!-- Yorgos&#45;&gt;Rémi -->
<g id="edge48" class="edge">
<title>Yorgos-&gt;Rémi</title>
<path fill="none" stroke="#006400" d="M594.1154,-543.9216C574.8688,-533.2029 549.3871,-516.6938 532,-496.6 517.1795,-479.4724 506.7418,-455.3709 500.8127,-439.0192"/>
<text text-anchor="middle" x="574.4965" y="-508.8" font-family="Times,serif" font-size="14.00" fill="#000000">Amici</text>
</g>
<!-- Zozo -->
<g id="node34" class="node">
<title>Zozo</title>
<ellipse fill="none" stroke="#000000" cx="945" cy="-421" rx="30.7597" ry="18"/>
<text text-anchor="middle" x="945" y="-416.8" font-family="Times,serif" font-size="14.00" fill="#000000">Zozo</text>
</g>
<!-- Zozo&#45;&gt;Robert -->
<g id="edge52" class="edge">
<title>Zozo-&gt;Robert</title>
<path fill="none" stroke="#000000" d="M955.4688,-404.0006C969.8516,-380.6457 995.8601,-338.4129 1012.775,-310.9463"/>
<polygon fill="#000000" stroke="#000000" points="1015.8692,-312.5965 1018.1328,-302.2463 1009.9088,-308.9258 1015.8692,-312.5965"/>
<text text-anchor="middle" x="995.2672" y="-372.4" font-family="Times,serif" font-size="14.00" fill="#000000">Madre</text>
</g>
</g>
</svg>